<svg width="1024" height="1024" viewBox="0 0 1024 1024" xmlns="http://www.w3.org/2000/svg" role="img" aria-label="WhatsApp logo">
  <circle cx="512" cy="512" r="512" fill="#25D366"/>
  <path fill="#FFFFFF" d="M757.5 266.3c-60.8-61-144.3-94.4-233.9-94.4-183.8 0-333.3 149.5-333.3 333.4 0 58.9 15.4 116.6 44.6 167.3L170 900.5l229.7-59.1c47.2 25.6 100.6 39.1 155.3 39.1 183.8 0 333.4-149.5 333.4-333.4 0-89.6-33.5-173.1-94.9-234.7zm-54.5 352.5c-15.1 42.6-63.3 81.1-106.3 86.9-17.2 2.4-36.1 3.7-54.8-0.9-16.6-4.2-48.4-15.4-128.7-63.9-73.3-43-122.4-96.2-143-117.7-21.1-22.2-44.2-52.3-62.4-92.4-16.8-36.9-22.5-69.8-24.1-78.4-2.1-11.6-0.1-20.1 5.2-27.1 7.2-9.8 20.4-14.6 28.4-16.7 7.5-2 16.5-2.4 24.6-0.6 6.6 1.4 20.4 8.4 26.8 11.4 5.5 2.5 11.6 2.4 17.3 0.5 5.9-2 39.6-12.9 55.7-17.1 15.5-4.1 30.4-3.7 42.6 0.7 12.1 4.4 38.3 14.5 56.3 36.1 17.1 20.4 21.2 34.3 23.6 41.4 2.5 7.4 1.9 13.3-1.4 18.6-1.9 3.4-10.8 17.0-14.2 21.1-3.4 3.9-6.9 4.9-12.8 3.2-5.6-1.6-24.3-8.9-46-17.7-21-8.4-39.2-11.3-56.9-11.0-20.3 0.4-39.3 5.6-56.8 15.8-15.3 8.6-28.3 21.5-39.1 38.3-10.4 16.2-12.9 26.4-13.6 29.3-0.9 3.6 0.1 6.5 2.8 10.4 2.7 3.8 11.4 18 24.6 35.4 17 22.5 39 50.8 62.7 64.6 23.4 13.5 44.1 18.8 46.8 19.7 2.7 0.7 5.5 1.1 8.5 1.1 5.0 0 18.4-3.3 35.0-14.6 16.5-11.0 99.6-58.0 116.5-64.8 17.0-6.9 28.3-10.9 34.9-13.9 6.6-2.9 12.7-2.5 17.6-1.5 4.5 0.8 13.9 5.7 17.8 11.3 3.9 5.8 3.9 10.8 2.7 14.8z"/>
</svg>
